<svg class="icon icon_logo" xmlns="http://www.w3.org/2000/svg" xmlns:xlink="http://www.w3.org/1999/xlink">
  <use xlink:href="#icon_logo">
    <symbol viewBox="0 0 36 36" id="icon_logo">
      <path d="M29.463 22.255A12.828 12.828 0 0 1 18 29.267a12.828 12.828 0 0 1-11.463-7.012.764.764 0 1 1 1.36-.697A11.306 11.306 0 0 0 18 27.738c4.28 0 8.15-2.368 10.103-6.18a.764.764 0 1 1 1.36.697M12.566 9.171c1.158 0 1.869 1.425 1.869 3.184 0 1.758-.71 3.183-1.869 3.183-1.177 0-1.869-1.425-1.869-3.183 0-1.759.693-3.184 1.869-3.184m10.868 0c1.158 0 1.869 1.425 1.869 3.184 0 1.758-.71 3.183-1.869 3.183-1.177 0-1.869-1.425-1.869-3.183 0-1.759.692-3.184 1.869-3.184M18 0C8.059 0 0 8.059 0 18s8.059 18 18 18 18-8.059 18-18S27.941 0 18 0" fill="#FC0" fill-rule="evenodd"></path>
    </symbol>
  </use>
</svg>
<svg fill="" class="icon icon_title" xmlns="http://www.w3.org/2000/svg" xmlns:xlink="http://www.w3.org/1999/xlink">
  <use xlink:href="#icon_title">
    <symbol viewBox="0 0 80 26" id="icon_title">
      <path fill="#FC0" fill-rule="evenodd" d="M3.556 5.384a2.641 2.641 0 0 1-2.66-2.66C.896 1.24 2.072.036 3.556.036a2.689 2.689 0 0 1 2.688 2.688c0 1.484-1.204 2.66-2.688 2.66zM1.204 20V6.476h4.732V20H1.204zm7.252 0V1.324h11.788v4.508h-6.496v2.464h6.3v4.508h-6.3V20H8.456zm21.588 0v-1.54c-.672.924-2.156 1.876-4.004 1.876-2.716 0-3.836-1.596-3.836-3.696V6.476h4.732v8.204c0 1.036.476 1.484 1.372 1.484.868 0 1.4-.616 1.736-1.176V6.476h4.732V20h-4.732zm14.952 0v-8.176c0-1.064-.504-1.512-1.372-1.512-.896 0-1.428.644-1.736 1.176V20h-4.732V6.476h4.732v1.568c.644-.924 2.156-1.904 4.004-1.904 2.716 0 3.836 1.624 3.836 3.724V20h-4.732zm14.98 0v-8.176c0-1.064-.504-1.512-1.372-1.512-.896 0-1.428.644-1.736 1.176V20h-4.732V6.476h4.732v1.568c.644-.924 2.156-1.904 4.004-1.904 2.716 0 3.836 1.624 3.836 3.724V20h-4.732zm7.896 1.12c.224.14.56.196.868.196.7 0 1.204-.168 1.372-.588l.168-.476-4.676-13.776h5.012l2.072 7.84 2.128-7.84H79.8l-5.18 15.26c-1.036 3.052-2.828 3.724-5.516 3.752-.42 0-1.484-.084-1.904-.224l.672-4.144z"></path>
    </symbol>
  </use>
</svg>
